<svg width="20" height="20" viewBox="0 0 20 20" fill="none" xmlns="http://www.w3.org/2000/svg">
<path d="M18.3328 9.08854V3.42188C18.3328 2.17187 17.7995 1.67188 16.4745 1.67188H13.1078C11.7828 1.67188 11.2495 2.17187 11.2495 3.42188V9.08854C11.2495 10.3385 11.7828 10.8385 13.1078 10.8385H16.4745C17.7995 10.8385 18.3328 10.3385 18.3328 9.08854Z" stroke="#343450" stroke-width="1.25" stroke-linecap="round" stroke-linejoin="round"/>
<path d="M18.3328 16.5781V15.0781C18.3328 13.8281 17.7995 13.3281 16.4745 13.3281H13.1078C11.7828 13.3281 11.2495 13.8281 11.2495 15.0781V16.5781C11.2495 17.8281 11.7828 18.3281 13.1078 18.3281H16.4745C17.7995 18.3281 18.3328 17.8281 18.3328 16.5781Z" stroke="#343450" stroke-width="1.25" stroke-linecap="round" stroke-linejoin="round"/>
<path d="M8.74886 10.9219V16.5885C8.74886 17.8385 8.21553 18.3385 6.89053 18.3385H3.52386C2.19886 18.3385 1.66553 17.8385 1.66553 16.5885V10.9219C1.66553 9.67188 2.19886 9.17188 3.52386 9.17188H6.89053C8.21553 9.17188 8.74886 9.67188 8.74886 10.9219Z" stroke="#343450" stroke-width="1.25" stroke-linecap="round" stroke-linejoin="round"/>
<path d="M8.74886 3.42187V4.92188C8.74886 6.17187 8.21553 6.67187 6.89053 6.67187H3.52386C2.19886 6.67187 1.66553 6.17187 1.66553 4.92188V3.42187C1.66553 2.17187 2.19886 1.67188 3.52386 1.67188H6.89053C8.21553 1.67188 8.74886 2.17187 8.74886 3.42187Z" stroke="#343450" stroke-width="1.25" stroke-linecap="round" stroke-linejoin="round"/>
</svg>
