<svg width="32" height="33" viewBox="0 0 32 33" fill="none" xmlns="http://www.w3.org/2000/svg">
<rect y="0.5" width="32" height="32" rx="16" fill="#FE8B8B"/>
<path d="M4.66932 15.8607V15.8701C4.66932 15.8819 4.67841 15.8937 4.68068 15.9091C4.73069 16.0966 4.86364 16.2475 5.03865 16.3135C5.10228 16.3371 5.16933 16.3524 5.23978 16.3524H13.5307C13.5716 16.3524 13.6091 16.3489 13.6466 16.3407C13.7602 16.3171 13.8614 16.2593 13.9409 16.1744C14.0455 16.0659 14.1125 15.9149 14.1125 15.7451C14.1125 15.4126 13.8511 15.1414 13.5307 15.1414H5.23978C5.1091 15.1414 4.98637 15.1897 4.89092 15.2652C4.75115 15.3737 4.65797 15.5494 4.65797 15.7451C4.65797 15.784 4.66138 15.8206 4.66933 15.8571L4.66932 15.8607Z" fill="white"/>
<path d="M5.80684 9.26419C5.42048 9.26419 5.10228 9.58966 5.10228 9.99533V14.0672C5.10228 14.3172 5.22501 14.5412 5.41364 14.671C5.52728 14.75 5.66137 14.7983 5.80684 14.7983H9.408C9.54209 14.7983 9.66368 14.7594 9.76823 14.6922C9.89664 14.6132 9.99778 14.4964 10.0557 14.3514C10.091 14.2641 10.1114 14.1674 10.1114 14.0672V9.99775C10.1114 9.80199 10.0353 9.62628 9.91596 9.49656C9.91255 9.49302 9.91028 9.48712 9.9046 9.48476L9.89891 9.47887C9.7705 9.34915 9.59893 9.27014 9.40687 9.27014H8.52507V12.0355C8.52507 12.0992 8.49552 12.1534 8.44098 12.1864C8.42393 12.1982 8.40348 12.2018 8.38302 12.2041C8.37393 12.2041 8.36825 12.21 8.36029 12.21C8.33075 12.21 8.29893 12.2006 8.27279 12.1864L7.60687 11.7725L6.94095 12.1864C6.92391 12.1982 6.90005 12.2018 6.87959 12.2041C6.84209 12.21 6.80345 12.2077 6.77164 12.1864C6.74891 12.1746 6.73414 12.1534 6.71936 12.1322C6.71936 12.1286 6.71027 12.1263 6.71027 12.1227C6.6955 12.0956 6.68754 12.065 6.68754 12.0355V9.27014H5.80574L5.80684 9.26419Z" fill="white"/>
<path d="M22.7818 12.6933C22.8693 12.5424 22.9182 12.3679 22.9182 12.1804C22.9182 11.9598 22.8455 11.7606 22.7296 11.5978C22.5807 11.3891 22.3603 11.2381 22.1011 11.1969V13.1686C22.3886 13.1237 22.6364 12.9457 22.7818 12.6945L22.7818 12.6933Z" fill="white"/>
<path d="M7.61009 11.3892C7.62487 11.3892 7.63964 11.3986 7.65328 11.401C7.66805 11.4069 7.6851 11.4069 7.69646 11.4163L8.19077 11.7241V9.26654H7.02373V11.7241L7.52375 11.4163C7.52375 11.4163 7.55329 11.4069 7.56693 11.401C7.5817 11.3974 7.59306 11.3892 7.60784 11.3892H7.61009Z" fill="white"/>
<path d="M5.75796 21.026C5.10001 21.7088 4.73637 22.6074 4.73637 23.5744C4.73637 25.5637 6.29888 27.1792 8.21245 27.1792C10.126 27.1792 11.6885 25.5613 11.6885 23.5744C11.6885 22.6086 11.3249 21.7088 10.6669 21.026H5.75796ZM8.2125 24.6215C7.65681 24.6215 7.2034 24.1533 7.2034 23.5743C7.2034 22.9941 7.65454 22.5236 8.2125 22.5236C8.7716 22.5236 9.22501 22.9976 9.22501 23.5743C9.22501 24.151 8.7682 24.6215 8.2125 24.6215Z" fill="white"/>
<path d="M27.7477 23.8692C27.7477 23.3409 27.6193 22.8185 27.3875 22.3562H23.3296C23.1228 22.3562 22.9284 22.447 22.7853 22.6003L21.9011 23.5968C21.7727 23.7418 21.6068 23.8409 21.4296 23.8987C21.4466 25.6923 22.8545 27.1439 24.5885 27.1439C26.3226 27.1439 27.7455 25.6734 27.7455 23.8679L27.7477 23.8692ZM24.5887 24.8479C24.0682 24.8479 23.6433 24.4104 23.6433 23.8668C23.6433 23.3232 24.0682 22.8821 24.5887 22.8821C25.1092 22.8821 25.5376 23.3232 25.5376 23.8668C25.5376 24.4104 25.1126 24.8479 24.5887 24.8479Z" fill="white"/>
<path d="M25.9784 19.9021H24.7943C24.7273 19.9021 24.6659 19.8596 24.6398 19.796L22.8012 15.204C22.6557 14.8384 22.3125 14.6037 21.9318 14.6037C21.8421 14.6037 21.7637 14.5247 21.7637 14.4292V10.7193H20.3932C20.1341 10.7252 19.8727 10.8007 19.6512 10.9398L19.9012 11.0424C20.2557 11.1721 20.5 11.5259 20.5 11.9245C20.5 12.2299 20.3603 12.5047 20.1216 12.6851C19.9671 12.7995 19.7841 12.8596 19.6011 12.8596C19.4989 12.8596 19.4034 12.8419 19.3046 12.8077L19.0546 12.7051C19.25 13.3124 19.7932 13.7523 20.4364 13.7523C20.5182 13.7523 20.5909 13.816 20.6046 13.8997L21.5796 19.8985C21.6841 20.5447 21.5103 21.2028 21.1 21.7063C20.6932 22.2075 20.0909 22.4976 19.4569 22.4976H15.6977C14.6125 22.4976 13.725 21.5766 13.725 20.4504V16.6805C13.6614 16.6958 13.5943 16.7041 13.5273 16.7041H8.64875C6.49876 16.7041 4.74184 18.4729 4.65457 20.6769H11.2728C11.3625 20.6769 11.4409 20.7559 11.4409 20.8514C11.4409 20.9481 11.3625 21.0259 11.2728 21.0259H11.1239C11.4762 21.4517 11.7228 21.9469 11.8716 22.4776L13.2909 23.6038H21.1045C21.3113 23.6038 21.5056 23.5165 21.6454 23.3597L22.5329 22.3632C22.7363 22.1368 23.0215 22.0071 23.3215 22.0071H27.851C27.8885 22.0071 27.9203 21.9705 27.9203 21.9351C27.9203 20.8149 27.0441 19.9068 25.968 19.9068L25.9784 19.9021ZM11.1831 19.592H7.37159C7.27841 19.592 7.20341 19.5165 7.20341 19.4174C7.20341 19.3184 7.27954 19.2429 7.37159 19.2429H11.1831C11.2763 19.2429 11.3513 19.3243 11.3513 19.4174C11.3513 19.5106 11.2751 19.592 11.1831 19.592ZM11.1831 18.6344H7.37159C7.27841 18.6344 7.20341 18.5554 7.20341 18.4599C7.20341 18.3632 7.27954 18.2853 7.37159 18.2853H11.1831C11.2763 18.2853 11.3513 18.3667 11.3513 18.4599C11.3513 18.553 11.2751 18.6344 11.1831 18.6344Z" fill="white"/>
</svg>
