<svg width="32" height="33" viewBox="0 0 32 33" fill="none" xmlns="http://www.w3.org/2000/svg">
<rect x="0.5" y="1" width="31" height="31" rx="15.5" fill="#5EE2AB"/>
<rect x="0.5" y="1" width="31" height="31" rx="15.5" stroke="white"/>
<path d="M11.2881 7.56757C10.1516 7.56836 9.06183 8.01999 8.25791 8.82335C7.45399 9.62671 7.00159 10.7162 7 11.8527V14.322C6.99997 15.0301 7.17577 15.7271 7.51163 16.3504C7.84748 16.9738 8.33288 17.504 8.92424 17.8934C8.98075 17.9354 9.02618 17.9905 9.05661 18.054C9.08704 18.1175 9.10155 18.1875 9.0989 18.2578V24.5816C9.09122 25.1355 9.28876 25.6727 9.65349 26.0897C10.0182 26.5067 10.5243 26.774 11.0743 26.8401C11.1446 26.8401 11.2139 26.8401 11.2821 26.8401C11.8617 26.8393 12.4173 26.6087 12.8271 26.1989C13.237 25.7891 13.4676 25.2335 13.4683 24.6539V18.2578C13.4657 18.1875 13.4802 18.1175 13.5106 18.054C13.5411 17.9905 13.5865 17.9354 13.643 17.8934C14.236 17.505 14.7232 16.9753 15.0607 16.3519C15.3981 15.7284 15.5753 15.0309 15.5763 14.322V11.8527C15.5747 10.7162 15.1223 9.62671 14.3184 8.82335C13.5144 8.01999 12.4247 7.56836 11.2881 7.56757ZM14.3717 14.322C14.3732 14.8333 14.2473 15.337 14.0055 15.7875C13.7636 16.238 13.4135 16.6213 12.9865 16.9027C12.7636 17.0514 12.5809 17.2529 12.4548 17.4894C12.3287 17.7258 12.2631 17.9898 12.2638 18.2578V24.6539C12.2644 24.791 12.2363 24.9268 12.1812 25.0524C12.1262 25.1781 12.0454 25.2908 11.9441 25.3833C11.8428 25.4757 11.7233 25.546 11.5932 25.5894C11.4631 25.6329 11.3253 25.6486 11.1888 25.6356C10.9385 25.6008 10.7098 25.475 10.5465 25.2823C10.3831 25.0895 10.2966 24.8432 10.3034 24.5906V18.2668C10.3062 17.9982 10.2424 17.7331 10.1179 17.4951C9.99338 17.2571 9.81195 17.0536 9.58975 16.9027C9.16414 16.6228 8.81474 16.2416 8.57295 15.7932C8.33116 15.3448 8.20457 14.8434 8.20453 14.334V11.8647C8.22957 11.064 8.56526 10.3044 9.14053 9.74685C9.71581 9.18928 10.4855 8.87748 11.2866 8.87748C12.0878 8.87748 12.8575 9.18928 13.4327 9.74685C14.008 10.3044 14.3437 11.064 14.3687 11.8647L14.3717 14.322ZM25.9594 8.16983V14.322C25.955 15.0654 25.7587 15.7952 25.3894 16.4404C25.02 17.0857 24.4903 17.6246 23.8514 18.0049V24.6539C23.8304 25.2201 23.5907 25.756 23.1827 26.1492C22.7748 26.5423 22.2303 26.7619 21.6637 26.7619C21.0971 26.7619 20.5526 26.5423 20.1446 26.1492C19.7367 25.756 19.497 25.2201 19.476 24.6539V18.0049C18.8371 17.6246 18.3073 17.0857 17.938 16.4404C17.5687 15.7952 17.3724 15.0654 17.368 14.322V8.16983C17.368 8.0101 17.4315 7.85691 17.5444 7.74397C17.6574 7.63102 17.8106 7.56757 17.9703 7.56757C18.13 7.56757 18.2832 7.63102 18.3962 7.74397C18.5091 7.85691 18.5726 8.0101 18.5726 8.16983V14.322C18.5754 14.9032 18.7414 15.472 19.0518 15.9634C19.3622 16.4549 19.8045 16.8492 20.3282 17.1015C20.4352 17.1467 20.5268 17.222 20.592 17.3182C20.6571 17.4144 20.6931 17.5273 20.6955 17.6435V24.6539C20.7095 24.9052 21.16 25.0841 21.002 25.3147C21.1848 25.4877 20.4438 24.6539 20.6955 24.6539C20.9473 24.6539 20.8191 26.0171 21.002 25.844C20.6955 26.2471 20.2681 24.9052 20.2821 24.6539V17.3235C20.2821 17.2103 19.515 17.48 19.7921 17.1823C18.6371 17.0411 22.9003 17.1507 23.0022 17.1015C23.5267 16.8499 23.9698 16.4558 24.2808 15.9643C24.5918 15.4728 24.7581 14.9036 24.7609 14.322V8.16983C24.7609 8.0101 24.8243 7.85691 24.9373 7.74397C25.0502 7.63102 25.2034 7.56757 25.3631 7.56757C25.5229 7.56757 25.676 7.63102 25.789 7.74397C25.9019 7.85691 25.9654 8.0101 25.9654 8.16983H25.9594ZM19.7921 14.593V8.16983C19.7921 8.0101 19.8556 7.85691 19.9685 7.74397C20.0815 7.63102 20.2347 7.56757 20.3944 7.56757C20.5541 7.56757 20.7073 7.63102 20.8203 7.74397C20.9332 7.85691 20.9967 8.0101 20.9967 8.16983V14.593C20.9967 14.7527 22.59 14.9059 22.477 15.0189C22.3641 15.1318 20.4418 17.6213 20.2821 17.6213C20.1223 17.6213 18.2001 15.1003 18.0871 14.9873C17.9742 14.8744 19.7921 14.7527 19.7921 14.593ZM22.2012 14.593V8.16983C22.2012 8.0101 22.2647 7.85691 22.3776 7.74397C22.4906 7.63102 22.6438 7.56757 22.8035 7.56757C22.9632 7.56757 23.1164 7.63102 23.2294 7.74397C23.3423 7.85691 23.4058 8.0101 23.4058 8.16983V14.593C23.4058 14.7527 25.5189 15.3449 25.4059 15.4579C25.293 15.5708 21.3198 18.9383 21.16 18.9383C21.0003 18.9383 20.2659 15.1318 20.153 15.0189C20.04 14.9059 22.2012 14.7527 22.2012 14.593Z" fill="white"/>
<path d="M9.74606 17.6212C5.88293 11.6509 9.45305 9.13403 11.5017 8.40237C15.9392 8.67971 15.0138 16.7432 12.8188 16.7432C12.2502 17.7987 13.2578 25.523 11.5019 25.962C9.30691 25.962 10.4717 18.7427 9.74606 17.6212Z" fill="white" stroke="white"/>
</svg>
