<svg width="33" height="33" viewBox="0 0 33 33" fill="none" xmlns="http://www.w3.org/2000/svg">
<rect x="0.5" y="0.5" width="32" height="32" rx="16" fill="#04C7D3"/>
<path fill-rule="evenodd" clip-rule="evenodd" d="M21.7355 26.0999H7.15406C7.01379 26.0999 6.89999 25.9947 6.89999 25.8655V13.9116C6.97858 13.9372 7.06387 13.9514 7.15406 13.9514H21.6921L21.6923 25.8658C21.6923 25.9458 21.7067 26.0249 21.7355 26.0999ZM11.2861 21.0338C11.1131 21.0338 10.9886 20.8755 11.0459 20.7227C11.6017 19.2409 13.1121 18.2452 14.8042 18.2452C15.1386 18.2452 15.1386 18.7139 14.8042 18.7139C13.3286 18.7139 12.0111 19.5827 11.526 20.8757C11.4896 20.9728 11.3912 21.0338 11.2861 21.0338ZM18.6863 23.6403H10.9224C9.30482 23.6403 8.70406 21.7366 9.36685 21.7366H9.56304C9.65233 19.4283 11.5029 17.5269 13.91 17.1439C13.4452 16.5431 13.7432 15.4739 14.8044 15.4739C15.8651 15.4739 16.1633 16.5423 15.6993 17.1433C18.0929 17.5206 19.9286 19.3888 20.0437 21.7366H20.2419C20.9047 21.7366 20.3041 23.6403 18.6863 23.6403ZM10.0711 21.7366L19.5375 21.7366C19.438 19.408 17.353 17.5421 14.8044 17.5421C12.2557 17.5421 10.1707 19.408 10.0711 21.7366ZM9.64582 22.2055C9.76443 22.7555 10.2917 23.1715 10.9224 23.1715H18.6862C19.3169 23.1715 19.8444 22.7555 19.9628 22.2055H19.7953H9.8133H9.64582ZM14.8044 15.9426C13.9984 15.9426 13.9976 17.0707 14.8016 17.0733C15.6058 17.0708 15.6101 15.9426 14.8044 15.9426ZM8.42453 18.4738C8.28427 18.4738 8.17047 18.3687 8.17047 18.2394V14.8068C8.17047 14.6774 8.28427 14.5724 8.42453 14.5724H12.1461C12.4807 14.5724 12.4807 15.0412 12.1461 15.0412H8.67864V18.2393C8.67864 18.3687 8.56489 18.4738 8.42453 18.4738Z" fill="white"/>
<path fill-rule="evenodd" clip-rule="evenodd" d="M21.7315 13.4827H7.15401C6.96993 13.4827 6.84632 13.3046 6.92321 13.1505L8.94951 9.08487C8.99098 9.00173 9.08117 8.94849 9.18046 8.94849H23.8226C23.477 9.68804 23.1257 10.4254 22.7796 11.1648C22.5367 11.6837 22.2943 12.2031 22.0573 12.7244C21.9919 12.8682 21.8118 13.2331 21.7315 13.4827ZM20.5854 12.1926H11.4535C11.119 12.1926 11.119 11.7239 11.4535 11.7239H20.5854C20.9199 11.7239 20.9199 12.1926 20.5854 12.1926ZM20.5854 10.7074H11.4535C11.119 10.7074 11.119 10.2387 11.4535 10.2387H20.5854C20.9199 10.2387 20.9199 10.7074 20.5854 10.7074Z" fill="white"/>
<path fill-rule="evenodd" clip-rule="evenodd" d="M24.5953 8.47975H23.7157H9.18082C9.09263 8.47975 9.00685 8.49378 8.92656 8.51998V7.8297C8.92656 6.87588 9.76794 6.10005 10.8018 6.10005H11.7683V7.0172C11.7683 7.36176 12.0724 7.64219 12.4459 7.64219H21.2923C21.6658 7.64219 21.9697 7.36176 21.9697 7.0172V6.10001H22.9358C23.9699 6.10001 24.8112 6.87587 24.8112 7.82966V8.47975L24.5953 8.47975ZM12.2765 6.10006V7.0172C12.2765 7.10196 12.354 7.17347 12.4459 7.17347H21.2922C21.3842 7.17347 21.4615 7.10196 21.4615 7.0172V6.10006H12.2765Z" fill="white"/>
<path fill-rule="evenodd" clip-rule="evenodd" d="M22.4544 26.1H24.3027V9.1048C24.0544 9.63631 22.2 13.5408 22.2 13.6683L22.2001 25.8656C22.2001 25.9038 22.2101 25.9399 22.2278 25.9719C22.263 26.042 22.3452 26.0971 22.4544 26.1ZM24.8109 26.1H26.6454C26.7546 26.0972 26.8361 26.0433 26.8713 25.9732C26.8889 25.9412 26.8996 25.9039 26.8996 25.8656L26.8998 13.6684C26.8998 13.543 25.107 9.76616 24.8109 9.13433L24.8109 26.1Z" fill="white"/>
</svg>
