<svg width="20" height="19" viewBox="0 0 20 19" fill="none" xmlns="http://www.w3.org/2000/svg">
<path d="M10.5294 18H3.59893C1.86631 18 1 17.1429 1 15.4286V8.57143C1 6.85714 1.86631 6 3.59893 6H7.93048V15.4286C7.93048 17.1429 8.79679 18 10.5294 18Z" stroke="#343450" stroke-miterlimit="10" stroke-linecap="round" stroke-linejoin="round"/>
<path d="M8.41205 3C8.34575 3.225 8.32089 3.4725 8.32089 3.75V6H4.17676V4.5C4.17676 3.675 4.9227 3 5.83441 3H8.41205Z" stroke="#343450" stroke-miterlimit="10" stroke-linecap="round" stroke-linejoin="round"/>
<path d="M11.5879 6V10" stroke="#343450" stroke-miterlimit="10" stroke-linecap="round" stroke-linejoin="round"/>
<path d="M15.8232 6V10" stroke="#343450" stroke-miterlimit="10" stroke-linecap="round" stroke-linejoin="round"/>
<path d="M14.7644 14H12.6467C12.0644 14 11.5879 14.36 11.5879 14.8V18H15.8232V14.8C15.8232 14.36 15.3467 14 14.7644 14Z" stroke="#343450" stroke-miterlimit="10" stroke-linecap="round" stroke-linejoin="round"/>
<path d="M4.17676 10V14" stroke="#343450" stroke-miterlimit="10" stroke-linecap="round" stroke-linejoin="round"/>
<path d="M8.41211 15.45V3.55C8.41211 1.85 9.29446 1 11.0592 1H16.3533C18.118 1 19.0003 1.85 19.0003 3.55V15.45C19.0003 17.15 18.118 18 16.3533 18H11.0592C9.29446 18 8.41211 17.15 8.41211 15.45Z" stroke="#343450" stroke-miterlimit="10" stroke-linecap="round" stroke-linejoin="round"/>
</svg>
