<svg width="32" height="33" viewBox="0 0 32 33" fill="none" xmlns="http://www.w3.org/2000/svg">
<rect x="0.5" y="1" width="31" height="31" rx="15.5" fill="#A796E4"/>
<rect x="0.5" y="1" width="31" height="31" rx="15.5" stroke="white"/>
<path fill-rule="evenodd" clip-rule="evenodd" d="M25.7801 13.5308C24.7392 13.2734 23.2961 13.1148 21.6953 13.1148C20.0945 13.1148 18.6489 13.2734 17.6105 13.5308C16.6816 13.7595 16.1064 14.0273 16.1064 14.2769C16.1064 14.5265 16.6816 14.7942 17.6105 15.023C18.6515 15.2804 20.0945 15.439 21.6953 15.439C23.2961 15.439 24.7392 15.2804 25.7801 15.023C26.709 14.7942 27.2842 14.5265 27.2842 14.2769C27.2842 14.0273 26.709 13.7595 25.7801 13.5308ZM15.544 17.3628V17.2328C15.4549 17.0014 14.9026 16.7623 14.0526 16.5517C13.0117 16.2943 11.5686 16.1357 9.96782 16.1357C8.367 16.1357 6.92142 16.2943 5.88305 16.5517C4.95411 16.7805 4.37894 17.0482 4.37894 17.2978C4.37894 17.5474 4.95411 17.8152 5.88305 18.0439C6.92397 18.3013 8.367 18.4599 9.96782 18.4599C11.5686 18.4599 13.0142 18.3013 14.0526 18.0439C14.9001 17.8334 15.4549 17.5942 15.544 17.3628ZM15.544 21.0103C15.2131 21.2157 14.7499 21.3898 14.1849 21.5302C13.1008 21.798 11.6094 21.9644 9.96782 21.9644C8.32628 21.9644 6.83489 21.798 5.75071 21.5302C5.17808 21.3898 4.71234 21.2105 4.37894 21.0025V23.1551C4.37894 23.4047 4.95411 23.6724 5.88305 23.9012C6.92397 24.1586 8.367 24.3172 9.96782 24.3172C11.5686 24.3172 13.0269 24.1664 14.0679 23.9142C14.9815 23.6932 15.544 23.4385 15.544 23.1915H15.5491C15.5491 23.1707 15.544 23.1499 15.544 23.1291V21.0103ZM27.2842 20.9115C26.9508 21.1195 26.4851 21.2988 25.9124 21.4392C24.8282 21.707 23.3369 21.8734 21.6953 21.8734C20.0538 21.8734 18.5624 21.707 17.4782 21.4392C16.9056 21.2988 16.4398 21.1195 16.1064 20.9115V23.1291C16.1064 23.3501 16.6918 23.6022 17.636 23.8258C18.6744 24.0702 20.1072 24.2262 21.6953 24.2262C23.2834 24.2262 24.7392 24.0676 25.7801 23.8102C26.709 23.5814 27.2842 23.3137 27.2842 23.0641V20.9115ZM15.544 18.0803V20.1368V20.2927C15.4549 20.5241 14.9026 20.7633 14.0526 20.9739C13.0117 21.2313 11.5686 21.3898 9.96782 21.3898C8.367 21.3898 6.92142 21.2313 5.88305 20.9739C4.95411 20.7451 4.37894 20.4773 4.37894 20.2277V18.0751C4.71234 18.2831 5.17808 18.4625 5.75071 18.6029C6.83489 18.8707 8.32628 19.0371 9.96782 19.0371C11.6094 19.0371 13.1008 18.8707 14.1849 18.6029C14.7499 18.4625 15.2131 18.2883 15.544 18.0829V18.0803ZM27.2842 17.9816V20.1342C27.2842 20.3837 26.709 20.6515 25.7801 20.8803C24.7392 21.1377 23.2961 21.2963 21.6953 21.2963C20.0945 21.2963 18.6489 21.1377 17.6105 20.8803C16.6816 20.6515 16.1064 20.3837 16.1064 20.1342V17.9816C16.4373 18.1895 16.9056 18.3689 17.4782 18.5093C18.5624 18.7771 20.0538 18.9435 21.6953 18.9435C23.3369 18.9435 24.8282 18.7771 25.9124 18.5093C26.4851 18.3689 26.9508 18.1895 27.2842 17.9816ZM16.1064 17.1704V15.0516C16.4398 15.2596 16.9056 15.439 17.4782 15.5794C18.5624 15.8471 20.0538 16.0135 21.6953 16.0135C23.3369 16.0135 24.8282 15.8471 25.9124 15.5794C26.4851 15.439 26.9508 15.2596 27.2842 15.0516V17.2042C27.2842 17.4538 26.709 17.7216 25.7801 17.9504C24.7392 18.2077 23.2961 18.3663 21.6953 18.3663C20.0945 18.3663 18.6489 18.2077 17.6105 17.9504C16.7605 17.7398 16.2082 17.498 16.1192 17.2692C16.1192 17.2354 16.1141 17.2016 16.1064 17.1704ZM19.9163 6.07725C18.8754 5.81987 17.4324 5.66129 15.8316 5.66129C14.2307 5.66129 12.7852 5.81987 11.7468 6.07725C10.8179 6.30603 10.2427 6.5738 10.2427 6.82338C10.2427 7.07296 10.8179 7.34073 11.7468 7.56951C12.7877 7.82689 14.2307 7.98547 15.8316 7.98547C17.4324 7.98547 18.8754 7.82689 19.9163 7.56951C20.8453 7.34073 21.4205 7.07296 21.4205 6.82338C21.4205 6.5738 20.8453 6.30603 19.9163 6.07725ZM21.4205 9.75331C21.4205 10.0029 20.8453 10.2707 19.9163 10.4994C18.8754 10.7568 17.4324 10.9154 15.8316 10.9154C14.2307 10.9154 12.7852 10.7568 11.7468 10.4994C10.8179 10.2707 10.2427 10.0029 10.2427 9.75331V7.60071C10.5735 7.80869 11.0418 7.98807 11.6145 8.12846C12.6986 8.39623 14.19 8.56262 15.8316 8.56262C17.4731 8.56262 18.9645 8.39623 20.0487 8.12846C20.6213 7.98807 21.0871 7.80869 21.4205 7.60071V9.75331ZM10.2427 12.6806V10.528C10.5735 10.736 11.0418 10.9154 11.6145 11.0558C12.6986 11.3236 14.19 11.49 15.8316 11.49C17.4731 11.49 18.9645 11.3236 20.0487 11.0558C20.6213 10.9154 21.0871 10.736 21.4205 10.528V12.5403C19.8883 12.5585 18.5013 12.7196 17.4782 12.9718C16.6154 13.185 15.9894 13.484 15.7069 13.8401C15.0197 13.8271 12.9939 13.7361 11.5686 13.3852C10.8102 13.198 10.2401 12.964 10.2401 12.6806H10.2427ZM10.2427 15.5612V13.4918C10.5506 13.6815 10.968 13.8297 11.4388 13.9441C12.8183 14.2847 14.7194 14.3913 15.5414 14.4121V16.5101C15.2106 16.3047 14.7474 16.1305 14.1824 15.9901C13.1593 15.738 11.7722 15.5768 10.2401 15.5586L10.2427 15.5612Z" fill="white"/>
</svg>
